<svg width="20" height="20" viewBox="0 0 256 262" xmlns="http://www.w3.org/2000/svg">
                <path fill="#4285F4" d="M255.68 133.43c0-10.97-.98-21.48-2.8-31.68H130v59.94h70.15c-3.02 16.3-12.14 30.1-25.16 39.38v32.55h40.74c23.85-21.96 39.95-54.26 39.95-90.19z"/>
                <path fill="#34A853" d="M130 261c35.1 0 64.53-11.63 86.04-31.38l-40.74-32.55c-11.31 7.6-25.83 12.1-45.3 12.1-34.8 0-64.29-23.49-74.84-55.05H12.94v34.56C34.33 233.44 78.68 261 130 261z"/>
                <path fill="#FBBC05" d="M55.16 154.11c-2.8-8.3-4.38-17.18-4.38-26.4s1.58-18.1 4.38-26.4V66.76H12.94C4.64 83.1 0 103.05 0 127.71s4.64 44.61 12.94 60.95l42.22-34.55z"/>
                <path fill="#EA4335" d="M130 50.99c19.08 0 36.18 6.57 49.63 19.47l37.21-37.21C194.47 11.63 165.09 0 130 0 78.68 0 34.33 27.56 12.94 66.76l42.22 34.55C65.71 75.48 95.2 50.99 130 50.99z"/>
              </svg>